<mxfile host="app.diagrams.net" modified="2024-01-03T08:40:01.522Z" agent="Mozilla/5.0 (Windows NT 10.0; Win64; x64) AppleWebKit/537.36 (KHTML, like Gecko) Chrome/120.0.0.0 Safari/537.36" etag="QPgQ7VsvL5dcMYI2R3kF" version="22.1.16" type="github" pages="3">
  <diagram name="Página-1" id="G3qss4rFU0XSDuvpTMuO">
    <mxGraphModel dx="2901" dy="768" grid="1" gridSize="10" guides="1" tooltips="1" connect="1" arrows="1" fold="1" page="1" pageScale="1" pageWidth="827" pageHeight="1169" math="0" shadow="0">
      <root>
        <mxCell id="0" />
        <mxCell id="1" parent="0" />
        <mxCell id="pyqpKjKKV07klXftnFIs-1" value="&lt;div&gt;- Ver estado actual del proyecto&lt;/div&gt;&lt;div&gt;- Revisar el build&lt;/div&gt;&lt;div&gt;- Deprecar SC y WEBGL&lt;/div&gt;&lt;div&gt;-Tener un subdominio con el juego.&lt;/div&gt;&lt;div&gt;Este juego o proyecto, se podrá acceder desde la web y&amp;nbsp;&lt;/div&gt;&lt;div&gt;tambien se compilará como APK y subirá a la play store (MISMO PROYECTO)&lt;/div&gt;&lt;div&gt;&lt;br&gt;&lt;/div&gt;&lt;div&gt;- Tecnologías a utilizar&lt;/div&gt;&lt;div&gt;- Investigar como conectar con alguna cartera con capacitor desde android&lt;/div&gt;&lt;div&gt;&lt;br&gt;&lt;/div&gt;&lt;div&gt;- División de faena&lt;/div&gt;&lt;div&gt;Tiho: Punto 1,2,3&lt;/div&gt;&lt;div&gt;Cris:&amp;nbsp; Punto 4 + Punto 1 TA&lt;/div&gt;&lt;div&gt;Luego conectarnos y mirar como juntar el repo nuevo en el subdominio&lt;/div&gt;&lt;div&gt;&lt;br&gt;&lt;/div&gt;&lt;div&gt;- Balance&lt;/div&gt;&lt;div&gt;Hace falta investigar un balance de levelo&lt;/div&gt;&lt;div&gt;&lt;br&gt;&lt;/div&gt;&lt;div&gt;- Roadmap&lt;/div&gt;&lt;div&gt;Next session&lt;/div&gt;&lt;div&gt;&lt;br&gt;&lt;/div&gt;&lt;div&gt;- Miscelanea&lt;/div&gt;&lt;div&gt;Darle una voltereta a un nombre mejor y más comercial&lt;/div&gt;" style="text;html=1;align=center;verticalAlign=middle;resizable=0;points=[];autosize=1;strokeColor=none;fillColor=none;" parent="1" vertex="1">
          <mxGeometry x="-50" y="35" width="440" height="340" as="geometry" />
        </mxCell>
        <mxCell id="pyqpKjKKV07klXftnFIs-8" style="edgeStyle=orthogonalEdgeStyle;rounded=0;orthogonalLoop=1;jettySize=auto;html=1;exitX=0.5;exitY=1;exitDx=0;exitDy=0;entryX=0.5;entryY=0;entryDx=0;entryDy=0;" parent="1" source="pyqpKjKKV07klXftnFIs-2" target="pyqpKjKKV07klXftnFIs-4" edge="1">
          <mxGeometry relative="1" as="geometry" />
        </mxCell>
        <mxCell id="pyqpKjKKV07klXftnFIs-2" value="Jugador Nivel 1&lt;br&gt;ATAQUE: 5&lt;br&gt;VIDA: 10" style="rounded=0;whiteSpace=wrap;html=1;" parent="1" vertex="1">
          <mxGeometry x="530" y="40" width="120" height="60" as="geometry" />
        </mxCell>
        <mxCell id="pyqpKjKKV07klXftnFIs-9" style="edgeStyle=orthogonalEdgeStyle;rounded=0;orthogonalLoop=1;jettySize=auto;html=1;exitX=0.5;exitY=1;exitDx=0;exitDy=0;entryX=0.5;entryY=0;entryDx=0;entryDy=0;" parent="1" source="pyqpKjKKV07klXftnFIs-3" target="pyqpKjKKV07klXftnFIs-5" edge="1">
          <mxGeometry relative="1" as="geometry" />
        </mxCell>
        <mxCell id="pyqpKjKKV07klXftnFIs-3" value="Bicho Nivel 1&lt;br&gt;ATAQUE: 3&lt;br&gt;VIDA: 14" style="rounded=0;whiteSpace=wrap;html=1;fillColor=#fff2cc;strokeColor=#d6b656;" parent="1" vertex="1">
          <mxGeometry x="690" y="40" width="120" height="60" as="geometry" />
        </mxCell>
        <mxCell id="pyqpKjKKV07klXftnFIs-4" value="Jugador Nivel 2&lt;br&gt;ATAQUE: 5,5&lt;br&gt;VIDA: 10,1" style="rounded=0;whiteSpace=wrap;html=1;" parent="1" vertex="1">
          <mxGeometry x="530" y="140" width="120" height="60" as="geometry" />
        </mxCell>
        <mxCell id="pyqpKjKKV07klXftnFIs-5" value="Bicho Nivel 2&lt;br&gt;ATAQUE: 3,3&lt;br&gt;VIDA: 14,14" style="rounded=0;whiteSpace=wrap;html=1;fillColor=#fff2cc;strokeColor=#d6b656;" parent="1" vertex="1">
          <mxGeometry x="690" y="140" width="120" height="60" as="geometry" />
        </mxCell>
        <mxCell id="pyqpKjKKV07klXftnFIs-10" value="" style="endArrow=classic;html=1;rounded=0;" parent="1" edge="1">
          <mxGeometry width="50" height="50" relative="1" as="geometry">
            <mxPoint x="510" y="80" as="sourcePoint" />
            <mxPoint x="510" y="150" as="targetPoint" />
          </mxGeometry>
        </mxCell>
        <mxCell id="pyqpKjKKV07klXftnFIs-11" value="10%" style="text;html=1;align=center;verticalAlign=middle;resizable=0;points=[];autosize=1;strokeColor=none;fillColor=none;" parent="1" vertex="1">
          <mxGeometry x="450" y="100" width="50" height="30" as="geometry" />
        </mxCell>
        <mxCell id="pyqpKjKKV07klXftnFIs-12" value="ITEM COMÚN&lt;br&gt;" style="rounded=0;whiteSpace=wrap;html=1;" parent="1" vertex="1">
          <mxGeometry x="490" y="270" width="120" height="60" as="geometry" />
        </mxCell>
        <mxCell id="pyqpKjKKV07klXftnFIs-13" value="ITEM RARO" style="rounded=0;whiteSpace=wrap;html=1;fillColor=#dae8fc;strokeColor=#6c8ebf;" parent="1" vertex="1">
          <mxGeometry x="620" y="270" width="120" height="60" as="geometry" />
        </mxCell>
        <mxCell id="pyqpKjKKV07klXftnFIs-14" value="ITEM LEGENDARIO" style="rounded=0;whiteSpace=wrap;html=1;fillColor=#ffe6cc;strokeColor=#d79b00;" parent="1" vertex="1">
          <mxGeometry x="750" y="270" width="120" height="60" as="geometry" />
        </mxCell>
      </root>
    </mxGraphModel>
  </diagram>
  <diagram id="mqwpFSCgK2DnccOAVuOG" name="Página-2">
    <mxGraphModel dx="1487" dy="632" grid="1" gridSize="10" guides="1" tooltips="1" connect="1" arrows="1" fold="1" page="1" pageScale="1" pageWidth="827" pageHeight="1169" math="0" shadow="0">
      <root>
        <mxCell id="0" />
        <mxCell id="1" parent="0" />
        <mxCell id="Cj6aZrRY7dUbf_1ntiMv-1" value="&lt;div&gt;- Balanceo&lt;/div&gt;&lt;div&gt;- Blockchain a utilizar&lt;/div&gt;&lt;div&gt;- Shimmer para desarrollo + IOTA para despliegue&lt;/div&gt;&lt;div&gt;- Desarrollo Sección del jugador / inventario&lt;/div&gt;&lt;div&gt;- Implementar frame responsive (front)&lt;/div&gt;&lt;div&gt;&amp;nbsp; - Implementar entidad jugador/bicho (Clase comun) (arrancar backend)&lt;/div&gt;&lt;div&gt;- Guardar en esta clase, tanto para jugadores como bichos:&lt;/div&gt;&lt;div&gt;&lt;b&gt;* vida&lt;/b&gt;&lt;/div&gt;&lt;div&gt;&lt;b&gt;* mana / energia&lt;/b&gt;&lt;/div&gt;&lt;div&gt;&lt;b&gt;* experencia&lt;/b&gt;&lt;/div&gt;&lt;div&gt;&lt;b&gt;* nivel&lt;/b&gt;&lt;/div&gt;&lt;div&gt;&lt;b&gt;*nombre =&amp;gt; jugador&lt;/b&gt;&lt;/div&gt;&lt;div&gt;&lt;b&gt;*email =&amp;gt; jugador&lt;/b&gt;&lt;/div&gt;&lt;div&gt;&amp;nbsp; - Implementar vista de inventario (frontend)&lt;/div&gt;&lt;div&gt;&amp;nbsp; - Requerir un sign in / loggeo con cartera (web3)&lt;/div&gt;" style="text;html=1;align=center;verticalAlign=middle;resizable=0;points=[];autosize=1;strokeColor=none;fillColor=none;" vertex="1" parent="1">
          <mxGeometry x="-790" y="140" width="410" height="230" as="geometry" />
        </mxCell>
        <mxCell id="CnbawDNhO0HjKL2ADojb-17" style="edgeStyle=orthogonalEdgeStyle;rounded=0;orthogonalLoop=1;jettySize=auto;html=1;exitX=0.5;exitY=1;exitDx=0;exitDy=0;entryX=0.5;entryY=0;entryDx=0;entryDy=0;" edge="1" parent="1" source="CnbawDNhO0HjKL2ADojb-12" target="CnbawDNhO0HjKL2ADojb-16">
          <mxGeometry relative="1" as="geometry" />
        </mxCell>
        <mxCell id="CnbawDNhO0HjKL2ADojb-12" value="Sign/auth in with web3" style="rounded=1;whiteSpace=wrap;html=1;" vertex="1" parent="1">
          <mxGeometry x="-280" y="190" width="120" height="60" as="geometry" />
        </mxCell>
        <mxCell id="CnbawDNhO0HjKL2ADojb-14" style="edgeStyle=orthogonalEdgeStyle;rounded=0;orthogonalLoop=1;jettySize=auto;html=1;exitX=0.5;exitY=1;exitDx=0;exitDy=0;entryX=0.5;entryY=0;entryDx=0;entryDy=0;" edge="1" parent="1" source="CnbawDNhO0HjKL2ADojb-13" target="CnbawDNhO0HjKL2ADojb-12">
          <mxGeometry relative="1" as="geometry" />
        </mxCell>
        <mxCell id="CnbawDNhO0HjKL2ADojb-13" value="Click connect" style="rounded=1;whiteSpace=wrap;html=1;" vertex="1" parent="1">
          <mxGeometry x="-280" y="90" width="120" height="60" as="geometry" />
        </mxCell>
        <mxCell id="CnbawDNhO0HjKL2ADojb-15" value="Obtener entidad bicho/jugador" style="rounded=1;whiteSpace=wrap;html=1;" vertex="1" parent="1">
          <mxGeometry x="-280" y="440" width="120" height="60" as="geometry" />
        </mxCell>
        <mxCell id="CnbawDNhO0HjKL2ADojb-18" style="edgeStyle=orthogonalEdgeStyle;rounded=0;orthogonalLoop=1;jettySize=auto;html=1;exitX=0.5;exitY=1;exitDx=0;exitDy=0;" edge="1" parent="1" source="CnbawDNhO0HjKL2ADojb-16" target="CnbawDNhO0HjKL2ADojb-15">
          <mxGeometry relative="1" as="geometry" />
        </mxCell>
        <mxCell id="CnbawDNhO0HjKL2ADojb-21" style="edgeStyle=orthogonalEdgeStyle;rounded=0;orthogonalLoop=1;jettySize=auto;html=1;exitX=1;exitY=1;exitDx=0;exitDy=0;entryX=0.5;entryY=0;entryDx=0;entryDy=0;" edge="1" parent="1" source="CnbawDNhO0HjKL2ADojb-16" target="CnbawDNhO0HjKL2ADojb-20">
          <mxGeometry relative="1" as="geometry" />
        </mxCell>
        <mxCell id="CnbawDNhO0HjKL2ADojb-16" value="Generar token de sesión" style="rounded=1;whiteSpace=wrap;html=1;" vertex="1" parent="1">
          <mxGeometry x="-280" y="300" width="120" height="60" as="geometry" />
        </mxCell>
        <mxCell id="CnbawDNhO0HjKL2ADojb-19" value="Exitoso" style="text;html=1;strokeColor=none;fillColor=none;align=center;verticalAlign=middle;whiteSpace=wrap;rounded=0;" vertex="1" parent="1">
          <mxGeometry x="-280" y="390" width="60" height="30" as="geometry" />
        </mxCell>
        <mxCell id="CnbawDNhO0HjKL2ADojb-20" value="Crear entidad bicho/jugador" style="rounded=1;whiteSpace=wrap;html=1;" vertex="1" parent="1">
          <mxGeometry x="-110" y="440" width="120" height="60" as="geometry" />
        </mxCell>
        <mxCell id="CnbawDNhO0HjKL2ADojb-22" value="No exitoso" style="text;html=1;strokeColor=none;fillColor=none;align=center;verticalAlign=middle;whiteSpace=wrap;rounded=0;" vertex="1" parent="1">
          <mxGeometry x="-110" y="360" width="60" height="30" as="geometry" />
        </mxCell>
      </root>
    </mxGraphModel>
  </diagram>
  <diagram id="g_CfNbhjF9KbYOa1o9b8" name="Jugador + items">
    <mxGraphModel dx="3267" dy="904" grid="1" gridSize="10" guides="1" tooltips="1" connect="1" arrows="1" fold="1" page="1" pageScale="1" pageWidth="827" pageHeight="1169" math="0" shadow="0">
      <root>
        <mxCell id="0" />
        <mxCell id="1" parent="0" />
        <mxCell id="My7AKB9AWR-sH_b6GuV3-2" value="BichoJugador" style="swimlane;fontStyle=0;childLayout=stackLayout;horizontal=1;startSize=30;horizontalStack=0;resizeParent=1;resizeParentMax=0;resizeLast=0;collapsible=1;marginBottom=0;whiteSpace=wrap;html=1;" vertex="1" parent="1">
          <mxGeometry x="50" y="100" width="140" height="240" as="geometry" />
        </mxCell>
        <mxCell id="My7AKB9AWR-sH_b6GuV3-3" value="Vida" style="text;strokeColor=none;fillColor=none;align=left;verticalAlign=middle;spacingLeft=4;spacingRight=4;overflow=hidden;points=[[0,0.5],[1,0.5]];portConstraint=eastwest;rotatable=0;whiteSpace=wrap;html=1;" vertex="1" parent="My7AKB9AWR-sH_b6GuV3-2">
          <mxGeometry y="30" width="140" height="30" as="geometry" />
        </mxCell>
        <mxCell id="My7AKB9AWR-sH_b6GuV3-4" value="Experencia / Nivel" style="text;strokeColor=none;fillColor=none;align=left;verticalAlign=middle;spacingLeft=4;spacingRight=4;overflow=hidden;points=[[0,0.5],[1,0.5]];portConstraint=eastwest;rotatable=0;whiteSpace=wrap;html=1;" vertex="1" parent="My7AKB9AWR-sH_b6GuV3-2">
          <mxGeometry y="60" width="140" height="30" as="geometry" />
        </mxCell>
        <mxCell id="My7AKB9AWR-sH_b6GuV3-5" value="Fuerza" style="text;strokeColor=none;fillColor=none;align=left;verticalAlign=middle;spacingLeft=4;spacingRight=4;overflow=hidden;points=[[0,0.5],[1,0.5]];portConstraint=eastwest;rotatable=0;whiteSpace=wrap;html=1;" vertex="1" parent="My7AKB9AWR-sH_b6GuV3-2">
          <mxGeometry y="90" width="140" height="30" as="geometry" />
        </mxCell>
        <mxCell id="My7AKB9AWR-sH_b6GuV3-9" value="&lt;b&gt;Otros stats ...&lt;/b&gt;" style="text;strokeColor=none;fillColor=none;align=left;verticalAlign=middle;spacingLeft=4;spacingRight=4;overflow=hidden;points=[[0,0.5],[1,0.5]];portConstraint=eastwest;rotatable=0;whiteSpace=wrap;html=1;" vertex="1" parent="My7AKB9AWR-sH_b6GuV3-2">
          <mxGeometry y="120" width="140" height="30" as="geometry" />
        </mxCell>
        <mxCell id="My7AKB9AWR-sH_b6GuV3-6" value="Slots maximos" style="text;strokeColor=none;fillColor=none;align=left;verticalAlign=middle;spacingLeft=4;spacingRight=4;overflow=hidden;points=[[0,0.5],[1,0.5]];portConstraint=eastwest;rotatable=0;whiteSpace=wrap;html=1;" vertex="1" parent="My7AKB9AWR-sH_b6GuV3-2">
          <mxGeometry y="150" width="140" height="30" as="geometry" />
        </mxCell>
        <mxCell id="My7AKB9AWR-sH_b6GuV3-7" value="Nombre" style="text;strokeColor=none;fillColor=none;align=left;verticalAlign=middle;spacingLeft=4;spacingRight=4;overflow=hidden;points=[[0,0.5],[1,0.5]];portConstraint=eastwest;rotatable=0;whiteSpace=wrap;html=1;" vertex="1" parent="My7AKB9AWR-sH_b6GuV3-2">
          <mxGeometry y="180" width="140" height="30" as="geometry" />
        </mxCell>
        <mxCell id="My7AKB9AWR-sH_b6GuV3-8" value="Correo electronico" style="text;strokeColor=none;fillColor=none;align=left;verticalAlign=middle;spacingLeft=4;spacingRight=4;overflow=hidden;points=[[0,0.5],[1,0.5]];portConstraint=eastwest;rotatable=0;whiteSpace=wrap;html=1;" vertex="1" parent="My7AKB9AWR-sH_b6GuV3-2">
          <mxGeometry y="210" width="140" height="30" as="geometry" />
        </mxCell>
        <mxCell id="My7AKB9AWR-sH_b6GuV3-10" value="Item" style="swimlane;fontStyle=0;childLayout=stackLayout;horizontal=1;startSize=30;horizontalStack=0;resizeParent=1;resizeParentMax=0;resizeLast=0;collapsible=1;marginBottom=0;whiteSpace=wrap;html=1;" vertex="1" parent="1">
          <mxGeometry x="400" y="85" width="140" height="270" as="geometry" />
        </mxCell>
        <mxCell id="My7AKB9AWR-sH_b6GuV3-11" value="Nivel" style="text;strokeColor=none;fillColor=none;align=left;verticalAlign=middle;spacingLeft=4;spacingRight=4;overflow=hidden;points=[[0,0.5],[1,0.5]];portConstraint=eastwest;rotatable=0;whiteSpace=wrap;html=1;" vertex="1" parent="My7AKB9AWR-sH_b6GuV3-10">
          <mxGeometry y="30" width="140" height="30" as="geometry" />
        </mxCell>
        <mxCell id="My7AKB9AWR-sH_b6GuV3-12" value="Rareza" style="text;strokeColor=none;fillColor=none;align=left;verticalAlign=middle;spacingLeft=4;spacingRight=4;overflow=hidden;points=[[0,0.5],[1,0.5]];portConstraint=eastwest;rotatable=0;whiteSpace=wrap;html=1;" vertex="1" parent="My7AKB9AWR-sH_b6GuV3-10">
          <mxGeometry y="60" width="140" height="30" as="geometry" />
        </mxCell>
        <mxCell id="My7AKB9AWR-sH_b6GuV3-14" value="Nombre&lt;br&gt;" style="text;strokeColor=none;fillColor=none;align=left;verticalAlign=middle;spacingLeft=4;spacingRight=4;overflow=hidden;points=[[0,0.5],[1,0.5]];portConstraint=eastwest;rotatable=0;whiteSpace=wrap;html=1;" vertex="1" parent="My7AKB9AWR-sH_b6GuV3-10">
          <mxGeometry y="90" width="140" height="30" as="geometry" />
        </mxCell>
        <mxCell id="My7AKB9AWR-sH_b6GuV3-15" value="Slot en el que se equipa : EquipSlotEnum" style="text;strokeColor=none;fillColor=none;align=left;verticalAlign=middle;spacingLeft=4;spacingRight=4;overflow=hidden;points=[[0,0.5],[1,0.5]];portConstraint=eastwest;rotatable=0;whiteSpace=wrap;html=1;" vertex="1" parent="My7AKB9AWR-sH_b6GuV3-10">
          <mxGeometry y="120" width="140" height="30" as="geometry" />
        </mxCell>
        <mxCell id="My7AKB9AWR-sH_b6GuV3-13" value="Descripción" style="text;strokeColor=none;fillColor=none;align=left;verticalAlign=middle;spacingLeft=4;spacingRight=4;overflow=hidden;points=[[0,0.5],[1,0.5]];portConstraint=eastwest;rotatable=0;whiteSpace=wrap;html=1;" vertex="1" parent="My7AKB9AWR-sH_b6GuV3-10">
          <mxGeometry y="150" width="140" height="30" as="geometry" />
        </mxCell>
        <mxCell id="My7AKB9AWR-sH_b6GuV3-16" value="Consumible : boolean" style="text;strokeColor=none;fillColor=none;align=left;verticalAlign=middle;spacingLeft=4;spacingRight=4;overflow=hidden;points=[[0,0.5],[1,0.5]];portConstraint=eastwest;rotatable=0;whiteSpace=wrap;html=1;" vertex="1" parent="My7AKB9AWR-sH_b6GuV3-10">
          <mxGeometry y="180" width="140" height="30" as="geometry" />
        </mxCell>
        <mxCell id="My7AKB9AWR-sH_b6GuV3-17" value="Equipado en: EquipSlotEnum" style="text;strokeColor=none;fillColor=none;align=left;verticalAlign=middle;spacingLeft=4;spacingRight=4;overflow=hidden;points=[[0,0.5],[1,0.5]];portConstraint=eastwest;rotatable=0;whiteSpace=wrap;html=1;" vertex="1" parent="My7AKB9AWR-sH_b6GuV3-10">
          <mxGeometry y="210" width="140" height="30" as="geometry" />
        </mxCell>
        <mxCell id="My7AKB9AWR-sH_b6GuV3-18" value="&lt;b&gt;Stats que mejora de la entidad Bichojugador&lt;/b&gt;" style="text;strokeColor=none;fillColor=none;align=left;verticalAlign=middle;spacingLeft=4;spacingRight=4;overflow=hidden;points=[[0,0.5],[1,0.5]];portConstraint=eastwest;rotatable=0;whiteSpace=wrap;html=1;" vertex="1" parent="My7AKB9AWR-sH_b6GuV3-10">
          <mxGeometry y="240" width="140" height="30" as="geometry" />
        </mxCell>
        <mxCell id="My7AKB9AWR-sH_b6GuV3-19" style="edgeStyle=orthogonalEdgeStyle;rounded=0;orthogonalLoop=1;jettySize=auto;html=1;exitX=1;exitY=0.5;exitDx=0;exitDy=0;entryX=0.014;entryY=0.067;entryDx=0;entryDy=0;entryPerimeter=0;" edge="1" parent="1" source="My7AKB9AWR-sH_b6GuV3-9" target="My7AKB9AWR-sH_b6GuV3-13">
          <mxGeometry relative="1" as="geometry" />
        </mxCell>
        <mxCell id="My7AKB9AWR-sH_b6GuV3-20" value="1:n" style="text;html=1;strokeColor=none;fillColor=none;align=center;verticalAlign=middle;whiteSpace=wrap;rounded=0;" vertex="1" parent="1">
          <mxGeometry x="270" y="190" width="60" height="30" as="geometry" />
        </mxCell>
        <mxCell id="My7AKB9AWR-sH_b6GuV3-21" value="Un bicho o jugador puede tener muchos items equipados" style="text;html=1;strokeColor=none;fillColor=none;align=center;verticalAlign=middle;whiteSpace=wrap;rounded=0;" vertex="1" parent="1">
          <mxGeometry x="230" y="250" width="140" height="90" as="geometry" />
        </mxCell>
        <mxCell id="My7AKB9AWR-sH_b6GuV3-22" value="Pero obviamente, dependiendo de su tipo (Slot en el que se equipa) solo se podrá equipar uno en un sitio. Por ejemplo un casco en EquipSlotEnum.Helmet" style="text;html=1;strokeColor=none;fillColor=none;align=center;verticalAlign=middle;whiteSpace=wrap;rounded=0;" vertex="1" parent="1">
          <mxGeometry x="220" y="340" width="160" height="120" as="geometry" />
        </mxCell>
        <mxCell id="My7AKB9AWR-sH_b6GuV3-38" style="edgeStyle=orthogonalEdgeStyle;rounded=0;orthogonalLoop=1;jettySize=auto;html=1;exitX=1;exitY=0.5;exitDx=0;exitDy=0;entryX=0;entryY=0.25;entryDx=0;entryDy=0;" edge="1" parent="1" source="My7AKB9AWR-sH_b6GuV3-23" target="My7AKB9AWR-sH_b6GuV3-36">
          <mxGeometry relative="1" as="geometry" />
        </mxCell>
        <mxCell id="My7AKB9AWR-sH_b6GuV3-23" value="1488 HP&lt;br&gt;Level 10&lt;br&gt;Exp 8814&lt;br&gt;Max Exp 14880&lt;br&gt;Fuerza 42&lt;br&gt;Daño de ataque 10-42&lt;br&gt;Mana 100&lt;br&gt;Slots maximos 80&lt;br&gt;The Pasive Aggresive Badger&lt;br&gt;badger@badgermail.com" style="rounded=0;whiteSpace=wrap;html=1;" vertex="1" parent="1">
          <mxGeometry x="-110" y="620" width="180" height="210" as="geometry" />
        </mxCell>
        <mxCell id="My7AKB9AWR-sH_b6GuV3-24" value="" style="shape=mxgraph.signs.animals.bear_1;html=1;pointerEvents=1;fillColor=#000000;strokeColor=none;verticalLabelPosition=bottom;verticalAlign=top;align=center;" vertex="1" parent="1">
          <mxGeometry x="-140" y="600" width="98" height="62" as="geometry" />
        </mxCell>
        <mxCell id="My7AKB9AWR-sH_b6GuV3-30" style="edgeStyle=orthogonalEdgeStyle;rounded=0;orthogonalLoop=1;jettySize=auto;html=1;exitX=1;exitY=0.5;exitDx=0;exitDy=0;entryX=0;entryY=0.5;entryDx=0;entryDy=0;" edge="1" parent="1" source="My7AKB9AWR-sH_b6GuV3-25" target="My7AKB9AWR-sH_b6GuV3-29">
          <mxGeometry relative="1" as="geometry" />
        </mxCell>
        <mxCell id="My7AKB9AWR-sH_b6GuV3-25" value="Espada magica&lt;br&gt;Level 9&lt;br&gt;Raro&lt;br&gt;&lt;b&gt;EquipSlotEnum.RightHand&lt;/b&gt;&lt;br&gt;Una espada del bosque badgero&lt;br&gt;Consumible: false&lt;br&gt;&lt;b&gt;Equipado en: EquipSlotEnum.RightHand&lt;/b&gt;&lt;br&gt;Fuerza + 10&lt;br&gt;Daño de ataque 10-42" style="rounded=0;whiteSpace=wrap;html=1;spacingTop=1;spacing=3;" vertex="1" parent="1">
          <mxGeometry x="390" y="520" width="180" height="210" as="geometry" />
        </mxCell>
        <mxCell id="My7AKB9AWR-sH_b6GuV3-32" style="edgeStyle=orthogonalEdgeStyle;rounded=0;orthogonalLoop=1;jettySize=auto;html=1;exitX=1;exitY=0.5;exitDx=0;exitDy=0;entryX=0;entryY=0.5;entryDx=0;entryDy=0;" edge="1" parent="1" source="My7AKB9AWR-sH_b6GuV3-26" target="My7AKB9AWR-sH_b6GuV3-31">
          <mxGeometry relative="1" as="geometry" />
        </mxCell>
        <mxCell id="My7AKB9AWR-sH_b6GuV3-26" value="Espada de madera&lt;br&gt;Level 5&lt;br&gt;Comun&lt;br&gt;&lt;b&gt;EquipSlotEnum.RightHand&lt;/b&gt;&lt;br&gt;Una espada de madera de m____&lt;br&gt;Consumible: false&lt;br&gt;&lt;b&gt;Equipado en: null&lt;/b&gt;&lt;br&gt;Fuerza + 5&lt;br&gt;Daño de ataque 3 - 12" style="rounded=0;whiteSpace=wrap;html=1;spacingTop=1;spacing=3;" vertex="1" parent="1">
          <mxGeometry x="390" y="760" width="180" height="210" as="geometry" />
        </mxCell>
        <mxCell id="My7AKB9AWR-sH_b6GuV3-33" style="edgeStyle=orthogonalEdgeStyle;rounded=0;orthogonalLoop=1;jettySize=auto;html=1;exitX=1;exitY=0.5;exitDx=0;exitDy=0;entryX=0;entryY=0.5;entryDx=0;entryDy=0;" edge="1" parent="1" source="My7AKB9AWR-sH_b6GuV3-27" target="My7AKB9AWR-sH_b6GuV3-31">
          <mxGeometry relative="1" as="geometry" />
        </mxCell>
        <mxCell id="My7AKB9AWR-sH_b6GuV3-27" value="Poción de vida&lt;br&gt;Level 10&lt;br&gt;Comun&lt;br&gt;&lt;b&gt;EquipSlotEnum.Consumable&lt;/b&gt;&lt;br&gt;Restaura 200 pts de vida&lt;br&gt;&lt;b&gt;Consumible: true&lt;/b&gt;&lt;br&gt;&lt;b&gt;Equipado en: null&lt;/b&gt;" style="rounded=0;whiteSpace=wrap;html=1;spacingTop=1;spacing=3;" vertex="1" parent="1">
          <mxGeometry x="390" y="1000" width="180" height="150" as="geometry" />
        </mxCell>
        <mxCell id="My7AKB9AWR-sH_b6GuV3-34" style="edgeStyle=orthogonalEdgeStyle;rounded=0;orthogonalLoop=1;jettySize=auto;html=1;exitX=1;exitY=0.5;exitDx=0;exitDy=0;entryX=0;entryY=0.5;entryDx=0;entryDy=0;" edge="1" parent="1" source="My7AKB9AWR-sH_b6GuV3-28" target="My7AKB9AWR-sH_b6GuV3-31">
          <mxGeometry relative="1" as="geometry" />
        </mxCell>
        <mxCell id="My7AKB9AWR-sH_b6GuV3-28" value="Casco autista&lt;br&gt;Level 7&lt;br&gt;Epico&lt;br&gt;&lt;b&gt;EquipSlotEnum.Helmet&lt;/b&gt;&lt;br&gt;Un casco creado por el druida Andreu&lt;br&gt;Consumible: false&lt;br&gt;&lt;b&gt;Equipado en: null&lt;/b&gt;&lt;br&gt;Fuerza + 10&lt;br&gt;Armadura + 30" style="rounded=0;whiteSpace=wrap;html=1;spacingTop=1;spacing=3;" vertex="1" parent="1">
          <mxGeometry x="390" y="1180" width="180" height="210" as="geometry" />
        </mxCell>
        <mxCell id="My7AKB9AWR-sH_b6GuV3-29" value="Se mostrará equipado en la vista del personaje" style="rounded=0;whiteSpace=wrap;html=1;" vertex="1" parent="1">
          <mxGeometry x="680" y="595" width="120" height="60" as="geometry" />
        </mxCell>
        <mxCell id="My7AKB9AWR-sH_b6GuV3-31" value="Se mostrará en el inventario sin equipar" style="rounded=0;whiteSpace=wrap;html=1;" vertex="1" parent="1">
          <mxGeometry x="680" y="1000" width="120" height="60" as="geometry" />
        </mxCell>
        <mxCell id="My7AKB9AWR-sH_b6GuV3-35" value="Posible respuesta backend" style="text;html=1;strokeColor=none;fillColor=none;align=center;verticalAlign=middle;whiteSpace=wrap;rounded=0;" vertex="1" parent="1">
          <mxGeometry x="1090" y="480" width="130" height="30" as="geometry" />
        </mxCell>
        <mxCell id="My7AKB9AWR-sH_b6GuV3-36" value="" style="rounded=0;whiteSpace=wrap;html=1;fillColor=none;fontColor=#333333;strokeColor=#000000;strokeWidth=3;" vertex="1" parent="1">
          <mxGeometry x="300" y="490" width="360" height="960" as="geometry" />
        </mxCell>
        <mxCell id="My7AKB9AWR-sH_b6GuV3-37" value="array de items" style="text;html=1;strokeColor=none;fillColor=none;align=center;verticalAlign=middle;whiteSpace=wrap;rounded=0;" vertex="1" parent="1">
          <mxGeometry x="415" y="460" width="130" height="30" as="geometry" />
        </mxCell>
        <mxCell id="My7AKB9AWR-sH_b6GuV3-39" value="{&lt;br&gt;&lt;br&gt;&lt;span style=&quot;white-space: pre;&quot;&gt;&#x9;&lt;/span&gt;character: {&lt;br&gt;&lt;span style=&quot;white-space: pre;&quot;&gt;&#x9;&lt;/span&gt;HP: 1488,&lt;br&gt;LEVEL: 10,&lt;br&gt;EXP: 8814,&lt;br&gt;MAX_EXP: 14880,&lt;br&gt;FUERZA: 42,&lt;br&gt;DANYO_ATAQUE: 10-42,&lt;br&gt;MANA: 100,&lt;br&gt;SLOTS_MAXIMOS: 80,&lt;br&gt;NOMBRE: THE PASSIVE AGRESSIVE BADGER,&lt;br&gt;EMAIL: BADGER@BADGERMAIL.COM,&lt;br&gt;items: [&lt;br&gt;&lt;b&gt;{&lt;br&gt;&lt;span style=&quot;white-space: pre;&quot;&gt;&#x9;&lt;/span&gt;nombre: Espada magica,&lt;br&gt;level: 9,&lt;br&gt;rareza: Raro,&lt;br&gt;type: RightHand,&lt;br&gt;descripcion: Una espada del bosqueda badgero&lt;br&gt;consumable: false,&lt;br&gt;equipped: Righthand,&lt;br&gt;Strenght: 10,&lt;br&gt;Danyo ataque: 10-42&lt;br&gt;&lt;br&gt;},&lt;br&gt;&lt;/b&gt;... other items&lt;br&gt;&lt;br&gt;&lt;br&gt;]&lt;br&gt;&lt;br&gt;&lt;br&gt;}&lt;br&gt;}" style="rounded=0;whiteSpace=wrap;html=1;align=center;" vertex="1" parent="1">
          <mxGeometry x="900" y="550" width="570" height="590" as="geometry" />
        </mxCell>
        <mxCell id="My7AKB9AWR-sH_b6GuV3-43" style="edgeStyle=orthogonalEdgeStyle;rounded=0;orthogonalLoop=1;jettySize=auto;html=1;exitX=1;exitY=0.5;exitDx=0;exitDy=0;" edge="1" parent="1" source="My7AKB9AWR-sH_b6GuV3-40" target="My7AKB9AWR-sH_b6GuV3-42">
          <mxGeometry relative="1" as="geometry" />
        </mxCell>
        <mxCell id="My7AKB9AWR-sH_b6GuV3-40" value="1488 HP&lt;br&gt;Level 10&lt;br&gt;Exp 8814&lt;br&gt;Max Exp 14880&lt;br&gt;Fuerza 42&lt;br&gt;Daño de ataque 10-42&lt;br&gt;Mana 100&lt;br&gt;Slots maximos 80&lt;br&gt;The Pasive Aggresive Badger&lt;br&gt;badger@badgermail.com" style="rounded=0;whiteSpace=wrap;html=1;" vertex="1" parent="1">
          <mxGeometry x="-90" y="1590" width="180" height="210" as="geometry" />
        </mxCell>
        <mxCell id="My7AKB9AWR-sH_b6GuV3-41" value="" style="shape=mxgraph.signs.animals.bear_1;html=1;pointerEvents=1;fillColor=#000000;strokeColor=none;verticalLabelPosition=bottom;verticalAlign=top;align=center;" vertex="1" parent="1">
          <mxGeometry x="-120" y="1570" width="98" height="62" as="geometry" />
        </mxCell>
        <mxCell id="My7AKB9AWR-sH_b6GuV3-42" value="Espada magica&lt;br&gt;Level 9&lt;br&gt;Raro&lt;br&gt;&lt;b&gt;EquipSlotEnum.RightHand&lt;/b&gt;&lt;br&gt;Una espada del bosque badgero&lt;br&gt;Consumible: false&lt;br&gt;&lt;b&gt;Equipado en: EquipSlotEnum.RightHand&lt;/b&gt;&lt;br&gt;Fuerza + 10&lt;br&gt;Daño de ataque 10-42" style="rounded=0;whiteSpace=wrap;html=1;spacingTop=1;spacing=3;" vertex="1" parent="1">
          <mxGeometry x="360" y="1590" width="180" height="210" as="geometry" />
        </mxCell>
        <mxCell id="My7AKB9AWR-sH_b6GuV3-44" value="La tiene equipada" style="text;html=1;strokeColor=none;fillColor=none;align=center;verticalAlign=middle;whiteSpace=wrap;rounded=0;" vertex="1" parent="1">
          <mxGeometry x="190" y="1640" width="120" height="30" as="geometry" />
        </mxCell>
        <mxCell id="My7AKB9AWR-sH_b6GuV3-45" style="edgeStyle=orthogonalEdgeStyle;rounded=0;orthogonalLoop=1;jettySize=auto;html=1;exitX=1;exitY=0.5;exitDx=0;exitDy=0;" edge="1" parent="1" source="My7AKB9AWR-sH_b6GuV3-50" target="My7AKB9AWR-sH_b6GuV3-47">
          <mxGeometry relative="1" as="geometry" />
        </mxCell>
        <mxCell id="My7AKB9AWR-sH_b6GuV3-46" value="1488 HP&lt;br&gt;Level 10&lt;br&gt;Exp 8814&lt;br&gt;Max Exp 14880&lt;br&gt;Fuerza 42&lt;br&gt;Daño de ataque 10-42&lt;br&gt;Mana 100&lt;br&gt;Slots maximos 80&lt;br&gt;The Pasive Aggresive Badger&lt;br&gt;badger@badgermail.com" style="rounded=0;whiteSpace=wrap;html=1;" vertex="1" parent="1">
          <mxGeometry x="-90" y="1880" width="180" height="210" as="geometry" />
        </mxCell>
        <mxCell id="My7AKB9AWR-sH_b6GuV3-47" value="Espada magica&lt;br&gt;Level 9&lt;br&gt;Raro&lt;br&gt;&lt;b&gt;EquipSlotEnum.RightHand&lt;/b&gt;&lt;br&gt;Una espada del bosque badgero&lt;br&gt;Consumible: false&lt;br&gt;&lt;b&gt;Equipado en: null&lt;/b&gt;&lt;br&gt;Fuerza + 10&lt;br&gt;Daño de ataque 10-42" style="rounded=0;whiteSpace=wrap;html=1;spacingTop=1;spacing=3;" vertex="1" parent="1">
          <mxGeometry x="360" y="1880" width="180" height="210" as="geometry" />
        </mxCell>
        <mxCell id="My7AKB9AWR-sH_b6GuV3-48" value="" style="shape=mxgraph.signs.animals.bear_1;html=1;pointerEvents=1;fillColor=#000000;strokeColor=none;verticalLabelPosition=bottom;verticalAlign=top;align=center;" vertex="1" parent="1">
          <mxGeometry x="-130" y="1840" width="98" height="62" as="geometry" />
        </mxCell>
        <mxCell id="My7AKB9AWR-sH_b6GuV3-49" value="Al desequiparla" style="text;html=1;strokeColor=none;fillColor=none;align=center;verticalAlign=middle;whiteSpace=wrap;rounded=0;" vertex="1" parent="1">
          <mxGeometry x="170" y="1930" width="120" height="30" as="geometry" />
        </mxCell>
        <mxCell id="My7AKB9AWR-sH_b6GuV3-51" value="" style="edgeStyle=orthogonalEdgeStyle;rounded=0;orthogonalLoop=1;jettySize=auto;html=1;exitX=1;exitY=0.5;exitDx=0;exitDy=0;" edge="1" parent="1" source="My7AKB9AWR-sH_b6GuV3-46" target="My7AKB9AWR-sH_b6GuV3-50">
          <mxGeometry relative="1" as="geometry">
            <mxPoint x="90" y="1985" as="sourcePoint" />
            <mxPoint x="360" y="1985" as="targetPoint" />
          </mxGeometry>
        </mxCell>
        <mxCell id="My7AKB9AWR-sH_b6GuV3-54" style="edgeStyle=orthogonalEdgeStyle;rounded=0;orthogonalLoop=1;jettySize=auto;html=1;entryX=0.5;entryY=0;entryDx=0;entryDy=0;" edge="1" parent="1" source="My7AKB9AWR-sH_b6GuV3-50" target="My7AKB9AWR-sH_b6GuV3-52">
          <mxGeometry relative="1" as="geometry" />
        </mxCell>
        <mxCell id="My7AKB9AWR-sH_b6GuV3-50" value="" style="shape=mxgraph.mockup.markup.redX;fillColor=#ff0000;html=1;shadow=0;whiteSpace=wrap;strokeColor=none;" vertex="1" parent="1">
          <mxGeometry x="200" y="1970" width="50" height="40" as="geometry" />
        </mxCell>
        <mxCell id="My7AKB9AWR-sH_b6GuV3-57" style="edgeStyle=orthogonalEdgeStyle;rounded=0;orthogonalLoop=1;jettySize=auto;html=1;exitX=1;exitY=0.5;exitDx=0;exitDy=0;entryX=0;entryY=0.5;entryDx=0;entryDy=0;" edge="1" parent="1" source="My7AKB9AWR-sH_b6GuV3-52" target="My7AKB9AWR-sH_b6GuV3-55">
          <mxGeometry relative="1" as="geometry" />
        </mxCell>
        <mxCell id="My7AKB9AWR-sH_b6GuV3-52" value="Llamar funcion/petición onUnEquip que le pasará el item a desequipar y se recalcularán los stats entonces, actualizando la entidad bicho/jugador" style="rounded=0;whiteSpace=wrap;html=1;" vertex="1" parent="1">
          <mxGeometry x="92.5" y="2150" width="275" height="102" as="geometry" />
        </mxCell>
        <mxCell id="My7AKB9AWR-sH_b6GuV3-55" value="1488 HP&lt;br&gt;Level 10&lt;br&gt;Exp 8814&lt;br&gt;Max Exp 14880&lt;br&gt;Fuerza 32&lt;br&gt;Daño de ataque 0&lt;br&gt;Mana 100&lt;br&gt;Slots maximos 80&lt;br&gt;The Pasive Aggresive Badger&lt;br&gt;badger@badgermail.com" style="rounded=0;whiteSpace=wrap;html=1;" vertex="1" parent="1">
          <mxGeometry x="660" y="2096" width="180" height="210" as="geometry" />
        </mxCell>
        <mxCell id="My7AKB9AWR-sH_b6GuV3-56" value="" style="shape=mxgraph.signs.animals.bear_1;html=1;pointerEvents=1;fillColor=#000000;strokeColor=none;verticalLabelPosition=bottom;verticalAlign=top;align=center;" vertex="1" parent="1">
          <mxGeometry x="620" y="2060" width="98" height="62" as="geometry" />
        </mxCell>
      </root>
    </mxGraphModel>
  </diagram>
</mxfile>
